<mxfile host="app.diagrams.net" modified="2021-11-23T10:01:54.957Z" agent="5.0 (Windows)" etag="_vysnTezx7RE4s1Srbq-" version="15.7.1" type="github">
  <diagram id="eE-bfbsEgwiHSZhWu_k5" name="Page-1">
    <mxGraphModel dx="395" dy="220" grid="1" gridSize="10" guides="1" tooltips="1" connect="1" arrows="1" fold="1" page="1" pageScale="1" pageWidth="850" pageHeight="1100" math="0" shadow="0">
      <root>
        <mxCell id="0" />
        <mxCell id="1" parent="0" />
        <mxCell id="UETa0M2R6W4NHTKt2jNL-1" value="LoadingScene" style="swimlane;fontStyle=1;align=center;verticalAlign=top;childLayout=stackLayout;horizontal=1;startSize=26;horizontalStack=0;resizeParent=1;resizeParentMax=0;resizeLast=0;collapsible=1;marginBottom=0;" vertex="1" parent="1">
          <mxGeometry x="95" y="60" width="330" height="150" as="geometry" />
        </mxCell>
        <mxCell id="UETa0M2R6W4NHTKt2jNL-2" value="public Text loadingText;&#xa;public Text continueText;" style="text;strokeColor=none;fillColor=none;align=left;verticalAlign=top;spacingLeft=4;spacingRight=4;overflow=hidden;rotatable=0;points=[[0,0.5],[1,0.5]];portConstraint=eastwest;" vertex="1" parent="UETa0M2R6W4NHTKt2jNL-1">
          <mxGeometry y="26" width="330" height="54" as="geometry" />
        </mxCell>
        <mxCell id="UETa0M2R6W4NHTKt2jNL-3" value="" style="line;strokeWidth=1;fillColor=none;align=left;verticalAlign=middle;spacingTop=-1;spacingLeft=3;spacingRight=3;rotatable=0;labelPosition=right;points=[];portConstraint=eastwest;" vertex="1" parent="UETa0M2R6W4NHTKt2jNL-1">
          <mxGeometry y="80" width="330" height="8" as="geometry" />
        </mxCell>
        <mxCell id="UETa0M2R6W4NHTKt2jNL-4" value="void LoadingText()&#xa;void ContinueButton()" style="text;strokeColor=none;fillColor=none;align=left;verticalAlign=top;spacingLeft=4;spacingRight=4;overflow=hidden;rotatable=0;points=[[0,0.5],[1,0.5]];portConstraint=eastwest;" vertex="1" parent="UETa0M2R6W4NHTKt2jNL-1">
          <mxGeometry y="88" width="330" height="62" as="geometry" />
        </mxCell>
      </root>
    </mxGraphModel>
  </diagram>
</mxfile>
